<mxfile host="drawio-plugin" modified="2022-03-20T18:46:08.983Z" agent="5.0 (X11; Linux x86_64) AppleWebKit/537.36 (KHTML, like Gecko) Chrome/89.0.4389.114 Safari/537.36" etag="SFP1svNMmY2rXe1EZtBZ" version="15.5.4" type="embed"><diagram name="Page-1" id="c4acf3e9-155e-7222-9cf6-157b1a14988f"><mxGraphModel dx="1092" dy="491" grid="1" gridSize="10" guides="1" tooltips="1" connect="1" arrows="1" fold="1" page="1" pageScale="1" pageWidth="827" pageHeight="1169" background="none" math="1" shadow="0"><root><mxCell id="0"/><mxCell id="1" parent="0"/><mxCell id="g3qYvioin09v0p6BItIm-24" value="Dofmanager" style="shape=umlFrame;whiteSpace=wrap;html=1;rounded=0;shadow=0;comic=0;labelBackgroundColor=none;strokeWidth=1;fontFamily=Verdana;fontSize=10;align=center;width=80;height=50;" parent="1" vertex="1"><mxGeometry x="950" y="20" width="600" height="280" as="geometry"/></mxCell><mxCell id="g3qYvioin09v0p6BItIm-16" value="Finite Elements" style="shape=umlFrame;whiteSpace=wrap;html=1;rounded=0;shadow=0;comic=0;labelBackgroundColor=none;strokeWidth=1;fontFamily=Verdana;fontSize=10;align=center;width=80;height=50;" parent="1" vertex="1"><mxGeometry x="1460" y="375" width="550" height="230" as="geometry"/></mxCell><mxCell id="5d2195bd80daf111-19" value="&lt;p style=&quot;margin: 0px ; margin-top: 4px ; text-align: center&quot;&gt;&lt;i&gt;&amp;lt;&amp;lt;Interface&amp;gt;&amp;gt;&lt;/i&gt;&lt;br&gt;&lt;b&gt;IFiniteElement&lt;/b&gt;&lt;/p&gt;&lt;hr size=&quot;1&quot;&gt;&lt;p style=&quot;margin: 0px ; margin-left: 4px&quot;&gt;&lt;br&gt;&lt;/p&gt;&lt;hr size=&quot;1&quot;&gt;&lt;p style=&quot;margin: 0px ; margin-left: 4px&quot;&gt;+&amp;nbsp;&lt;span style=&quot;background-color: rgb(255 , 255 , 255) ; font-family: &amp;#34;jetbrains mono&amp;#34; , monospace&quot;&gt;initialize&lt;/span&gt;&lt;/p&gt;&lt;p style=&quot;margin: 0px ; margin-left: 4px&quot;&gt;+&amp;nbsp;&lt;span style=&quot;background-color: rgb(255 , 255 , 255) ; font-family: &amp;#34;jetbrains mono&amp;#34; , monospace&quot;&gt;dofSize&lt;/span&gt;&lt;/p&gt;&lt;p style=&quot;margin: 0px ; margin-left: 4px&quot;&gt;&lt;span style=&quot;background-color: rgb(255 , 255 , 255) ; font-family: &amp;#34;jetbrains mono&amp;#34; , monospace&quot;&gt;+&amp;nbsp;&lt;/span&gt;&lt;span style=&quot;background-color: rgb(255 , 255 , 255) ; font-family: &amp;#34;jetbrains mono&amp;#34; , monospace&quot;&gt;calculateLocalSystem&lt;/span&gt;&lt;/p&gt;&lt;p style=&quot;margin: 0px ; margin-left: 4px&quot;&gt;&lt;span style=&quot;background-color: rgb(255 , 255 , 255) ; font-family: &amp;#34;jetbrains mono&amp;#34; , monospace&quot;&gt;+&amp;nbsp;&lt;/span&gt;&lt;span style=&quot;background-color: rgb(255 , 255 , 255) ; font-family: &amp;#34;jetbrains mono&amp;#34; , monospace&quot;&gt;calculateLHS&lt;/span&gt;&lt;/p&gt;&lt;p style=&quot;margin: 0px ; margin-left: 4px&quot;&gt;&lt;span style=&quot;background-color: rgb(255 , 255 , 255) ; font-family: &amp;#34;jetbrains mono&amp;#34; , monospace&quot;&gt;+&amp;nbsp;&lt;/span&gt;&lt;span style=&quot;background-color: rgb(255 , 255 , 255) ; font-family: &amp;#34;jetbrains mono&amp;#34; , monospace&quot;&gt;calculateRHS&lt;/span&gt;&lt;/p&gt;&lt;p style=&quot;margin: 0px ; margin-left: 4px&quot;&gt;&lt;span style=&quot;background-color: rgb(255 , 255 , 255) ; font-family: &amp;#34;jetbrains mono&amp;#34; , monospace&quot;&gt;+&amp;nbsp;&lt;/span&gt;&lt;span style=&quot;background-color: rgb(255 , 255 , 255) ; font-family: &amp;#34;jetbrains mono&amp;#34; , monospace&quot;&gt;getEntityVariablePairs&lt;/span&gt;&lt;/p&gt;&lt;p style=&quot;margin: 0px ; margin-left: 4px&quot;&gt;&lt;span style=&quot;background-color: rgb(255 , 255 , 255) ; font-family: &amp;#34;jetbrains mono&amp;#34; , monospace&quot;&gt;+ calculateOnIntegrationPoints&lt;/span&gt;&lt;/p&gt;" style="verticalAlign=top;align=left;overflow=fill;fontSize=12;fontFamily=Helvetica;html=1;rounded=0;shadow=0;comic=0;labelBackgroundColor=none;strokeWidth=1" parent="1" vertex="1"><mxGeometry x="1551" y="385" width="220" height="200" as="geometry"/></mxCell><mxCell id="g3qYvioin09v0p6BItIm-15" value="&lt;p style=&quot;margin: 0px ; margin-top: 4px ; text-align: center&quot;&gt;&lt;/p&gt;&lt;p style=&quot;text-align: center ; margin: 0px 0px 0px 4px&quot;&gt;&lt;b&gt;DofManager&lt;/b&gt;&lt;/p&gt;&lt;hr size=&quot;1&quot;&gt;&lt;p style=&quot;margin: 0px ; margin-left: 4px&quot;&gt;+&amp;nbsp;&lt;span style=&quot;background-color: rgb(255 , 255 , 255) ; font-family: &amp;#34;jetbrains mono&amp;#34; , monospace&quot;&gt;createDofList&lt;/span&gt;&lt;/p&gt;&lt;p style=&quot;margin: 0px ; margin-left: 4px&quot;&gt;&lt;span style=&quot;background-color: rgb(255 , 255 , 255) ; font-family: &amp;#34;jetbrains mono&amp;#34; , monospace&quot;&gt;+&amp;nbsp;&lt;/span&gt;&lt;span style=&quot;background-color: rgb(255 , 255 , 255) ; font-family: &amp;#34;jetbrains mono&amp;#34; , monospace&quot;&gt;correctionSize&lt;/span&gt;&lt;/p&gt;&lt;p style=&quot;margin: 0px ; margin-left: 4px&quot;&gt;&lt;span style=&quot;background-color: rgb(255 , 255 , 255) ; font-family: &amp;#34;jetbrains mono&amp;#34; , monospace&quot;&gt;+&amp;nbsp;&lt;/span&gt;&lt;span style=&quot;background-color: rgb(255 , 255 , 255) ; font-family: &amp;#34;jetbrains mono&amp;#34; , monospace&quot;&gt;elementDofVectorSize(ele)&lt;/span&gt;&lt;/p&gt;&lt;p style=&quot;margin: 0px ; margin-left: 4px&quot;&gt;&lt;span style=&quot;background-color: rgb(255 , 255 , 255) ; font-family: &amp;#34;jetbrains mono&amp;#34; , monospace&quot;&gt;+&amp;nbsp;&lt;/span&gt;&lt;span style=&quot;background-color: rgb(255 , 255 , 255) ; font-family: &amp;#34;jetbrains mono&amp;#34; , monospace&quot;&gt;elementDofIndices(ele)&lt;/span&gt;&lt;/p&gt;&lt;span style=&quot;font-family: &amp;#34;jetbrains mono&amp;#34; , monospace ; background-color: rgb(255 , 255 , 255)&quot;&gt;&lt;br&gt;&lt;/span&gt;&lt;p style=&quot;margin: 0px ; margin-left: 4px&quot;&gt;&lt;span style=&quot;background-color: rgb(255 , 255 , 255) ; font-family: &amp;#34;jetbrains mono&amp;#34; , monospace&quot;&gt;+&amp;nbsp;&lt;/span&gt;&lt;span style=&quot;background-color: rgb(255 , 255 , 255) ; font-family: &amp;#34;jetbrains mono&amp;#34; , monospace&quot;&gt;elementVariables&lt;/span&gt;&lt;/p&gt;" style="verticalAlign=top;align=left;overflow=fill;fontSize=12;fontFamily=Helvetica;html=1;rounded=0;shadow=0;comic=0;labelBackgroundColor=none;strokeWidth=1" parent="1" vertex="1"><mxGeometry x="1060" y="56" width="190" height="140" as="geometry"/></mxCell><mxCell id="g3qYvioin09v0p6BItIm-18" value="&lt;p style=&quot;margin: 0px ; margin-top: 4px ; text-align: center&quot;&gt;&lt;/p&gt;&lt;p style=&quot;text-align: center ; margin: 0px 0px 0px 4px&quot;&gt;&lt;b&gt;Q1&lt;/b&gt;&lt;/p&gt;&lt;hr size=&quot;1&quot;&gt;&lt;p style=&quot;margin: 0px ; margin-left: 4px&quot;&gt;&lt;br&gt;&lt;/p&gt;" style="verticalAlign=top;align=left;overflow=fill;fontSize=12;fontFamily=Helvetica;html=1;rounded=0;shadow=0;comic=0;labelBackgroundColor=none;strokeWidth=1" parent="1" vertex="1"><mxGeometry x="1805" y="385" width="180" height="25" as="geometry"/></mxCell><mxCell id="g3qYvioin09v0p6BItIm-19" value="&lt;p style=&quot;margin: 0px ; margin-top: 4px ; text-align: center&quot;&gt;&lt;/p&gt;&lt;p style=&quot;text-align: center ; margin: 0px 0px 0px 4px&quot;&gt;&lt;b&gt;KL Schale&lt;/b&gt;&lt;/p&gt;&lt;hr size=&quot;1&quot;&gt;&lt;p style=&quot;margin: 0px ; margin-left: 4px&quot;&gt;&lt;br&gt;&lt;/p&gt;" style="verticalAlign=top;align=left;overflow=fill;fontSize=12;fontFamily=Helvetica;html=1;rounded=0;shadow=0;comic=0;labelBackgroundColor=none;strokeWidth=1" parent="1" vertex="1"><mxGeometry x="1805" y="420" width="180" height="31" as="geometry"/></mxCell><mxCell id="g3qYvioin09v0p6BItIm-25" value="&lt;p style=&quot;margin: 0px ; margin-top: 4px ; text-align: center&quot;&gt;&lt;/p&gt;&lt;p style=&quot;text-align: center ; margin: 0px 0px 0px 4px&quot;&gt;&lt;b&gt;DofManagerFactory&lt;/b&gt;&lt;/p&gt;&lt;hr size=&quot;1&quot;&gt;&lt;p style=&quot;margin: 0px ; margin-left: 4px&quot;&gt;&lt;br&gt;&lt;/p&gt;" style="verticalAlign=top;align=left;overflow=fill;fontSize=12;fontFamily=Helvetica;html=1;rounded=0;shadow=0;comic=0;labelBackgroundColor=none;strokeWidth=1" parent="1" vertex="1"><mxGeometry x="1300" y="56" width="190" height="140" as="geometry"/></mxCell><mxCell id="g3qYvioin09v0p6BItIm-26" value="Variables" style="shape=umlFrame;whiteSpace=wrap;html=1;rounded=0;shadow=0;comic=0;labelBackgroundColor=none;strokeWidth=1;fontFamily=Verdana;fontSize=10;align=center;width=80;height=50;" parent="1" vertex="1"><mxGeometry x="1190" y="710" width="550" height="230" as="geometry"/></mxCell><mxCell id="g3qYvioin09v0p6BItIm-27" value="&lt;p style=&quot;margin: 0px ; margin-top: 4px ; text-align: center&quot;&gt;&lt;i&gt;&amp;lt;&amp;lt;Interface&amp;gt;&amp;gt;&lt;/i&gt;&lt;br&gt;&lt;b&gt;IVariable&lt;/b&gt;&lt;/p&gt;&lt;hr size=&quot;1&quot;&gt;&lt;p style=&quot;margin: 0px ; margin-left: 4px&quot;&gt;&lt;br&gt;&lt;/p&gt;&lt;hr size=&quot;1&quot;&gt;&lt;p style=&quot;margin: 0px ; margin-left: 4px&quot;&gt;+&amp;nbsp;&lt;span style=&quot;background-color: rgb(255 , 255 , 255) ; font-family: &amp;#34;jetbrains mono&amp;#34; , monospace&quot;&gt;operator+=&lt;/span&gt;&lt;/p&gt;&lt;p style=&quot;margin: 0px ; margin-left: 4px&quot;&gt;+ correctionSize&lt;/p&gt;&lt;p style=&quot;margin: 0px ; margin-left: 4px&quot;&gt;+ valueSize&lt;/p&gt;&lt;p style=&quot;margin: 0px ; margin-left: 4px&quot;&gt;+ getValue&lt;/p&gt;&lt;p style=&quot;margin: 0px ; margin-left: 4px&quot;&gt;+ getName&lt;/p&gt;" style="verticalAlign=top;align=left;overflow=fill;fontSize=12;fontFamily=Helvetica;html=1;rounded=0;shadow=0;comic=0;labelBackgroundColor=none;strokeWidth=1" parent="1" vertex="1"><mxGeometry x="1280" y="750" width="149" height="172" as="geometry"/></mxCell><mxCell id="g3qYvioin09v0p6BItIm-28" value="Assembler" style="shape=umlFrame;whiteSpace=wrap;html=1;rounded=0;shadow=0;comic=0;labelBackgroundColor=none;strokeWidth=1;fontFamily=Verdana;fontSize=10;align=center;width=80;height=50;" parent="1" vertex="1"><mxGeometry x="580" y="451" width="220" height="140" as="geometry"/></mxCell><mxCell id="g3qYvioin09v0p6BItIm-29" value="" style="endArrow=classic;html=1;exitX=1;exitY=0.5;exitDx=0;exitDy=0;entryX=0;entryY=0.5;entryDx=0;entryDy=0;" parent="1" target="g3qYvioin09v0p6BItIm-15" edge="1"><mxGeometry width="50" height="50" relative="1" as="geometry"><mxPoint x="510" y="100" as="sourcePoint"/><mxPoint x="620" y="440" as="targetPoint"/></mxGeometry></mxCell><mxCell id="g3qYvioin09v0p6BItIm-30" value="" style="endArrow=classic;html=1;exitX=0;exitY=0.75;exitDx=0;exitDy=0;entryX=1;entryY=0.75;entryDx=0;entryDy=0;" parent="1" source="g3qYvioin09v0p6BItIm-25" target="g3qYvioin09v0p6BItIm-15" edge="1"><mxGeometry width="50" height="50" relative="1" as="geometry"><mxPoint x="570" y="490" as="sourcePoint"/><mxPoint x="620" y="440" as="targetPoint"/></mxGeometry></mxCell><mxCell id="g3qYvioin09v0p6BItIm-31" value="" style="endArrow=classic;html=1;exitX=0;exitY=1;exitDx=0;exitDy=0;entryX=0.814;entryY=-0.012;entryDx=0;entryDy=0;entryPerimeter=0;" parent="1" source="g3qYvioin09v0p6BItIm-15" target="g3qYvioin09v0p6BItIm-28" edge="1"><mxGeometry width="50" height="50" relative="1" as="geometry"><mxPoint x="570" y="490" as="sourcePoint"/><mxPoint x="620" y="440" as="targetPoint"/></mxGeometry></mxCell><mxCell id="g3qYvioin09v0p6BItIm-37" value="" style="endArrow=classic;html=1;exitX=0;exitY=0.576;exitDx=0;exitDy=0;exitPerimeter=0;" parent="1" source="g3qYvioin09v0p6BItIm-28" edge="1"><mxGeometry width="50" height="50" relative="1" as="geometry"><mxPoint x="570" y="490" as="sourcePoint"/><mxPoint x="350" y="509.9170149253731" as="targetPoint"/></mxGeometry></mxCell><mxCell id="g3qYvioin09v0p6BItIm-41" value="Requirements" style="shape=umlFrame;whiteSpace=wrap;html=1;rounded=0;shadow=0;comic=0;labelBackgroundColor=none;strokeWidth=1;fontFamily=Verdana;fontSize=10;align=center;width=80;height=50;" parent="1" vertex="1"><mxGeometry x="890" y="375" width="550" height="230" as="geometry"/></mxCell><mxCell id="g3qYvioin09v0p6BItIm-42" value="&lt;p style=&quot;margin: 0px ; margin-top: 4px ; text-align: center&quot;&gt;&lt;i&gt;&amp;lt;&amp;lt;Interface&amp;gt;&amp;gt;&lt;/i&gt;&lt;br&gt;&lt;b&gt;IRequirement&lt;/b&gt;&lt;/p&gt;&lt;hr size=&quot;1&quot;&gt;&lt;p style=&quot;margin: 0px ; margin-left: 4px&quot;&gt;&lt;br&gt;&lt;/p&gt;&lt;hr size=&quot;1&quot;&gt;&lt;p style=&quot;margin: 0px ; margin-left: 4px&quot;&gt;+&amp;nbsp;&lt;span style=&quot;background-color: rgb(255 , 255 , 255) ; font-family: &amp;#34;jetbrains mono&amp;#34; , monospace&quot;&gt;initialize&lt;/span&gt;&lt;/p&gt;&lt;p style=&quot;margin: 0px ; margin-left: 4px&quot;&gt;+&amp;nbsp;&lt;span style=&quot;background-color: rgb(255 , 255 , 255) ; font-family: &amp;#34;jetbrains mono&amp;#34; , monospace&quot;&gt;dofSize&lt;/span&gt;&lt;/p&gt;&lt;p style=&quot;margin: 0px ; margin-left: 4px&quot;&gt;&lt;span style=&quot;background-color: rgb(255 , 255 , 255) ; font-family: &amp;#34;jetbrains mono&amp;#34; , monospace&quot;&gt;+&amp;nbsp;&lt;/span&gt;&lt;span style=&quot;background-color: rgb(255 , 255 , 255) ; font-family: &amp;#34;jetbrains mono&amp;#34; , monospace&quot;&gt;calculateLocalSystem&lt;/span&gt;&lt;/p&gt;&lt;p style=&quot;margin: 0px ; margin-left: 4px&quot;&gt;&lt;span style=&quot;background-color: rgb(255 , 255 , 255) ; font-family: &amp;#34;jetbrains mono&amp;#34; , monospace&quot;&gt;+&amp;nbsp;&lt;/span&gt;&lt;span style=&quot;background-color: rgb(255 , 255 , 255) ; font-family: &amp;#34;jetbrains mono&amp;#34; , monospace&quot;&gt;calculateLHS&lt;/span&gt;&lt;/p&gt;&lt;p style=&quot;margin: 0px ; margin-left: 4px&quot;&gt;&lt;span style=&quot;background-color: rgb(255 , 255 , 255) ; font-family: &amp;#34;jetbrains mono&amp;#34; , monospace&quot;&gt;+&amp;nbsp;&lt;/span&gt;&lt;span style=&quot;background-color: rgb(255 , 255 , 255) ; font-family: &amp;#34;jetbrains mono&amp;#34; , monospace&quot;&gt;calculateRHS&lt;/span&gt;&lt;/p&gt;&lt;p style=&quot;margin: 0px ; margin-left: 4px&quot;&gt;&lt;span style=&quot;background-color: rgb(255 , 255 , 255) ; font-family: &amp;#34;jetbrains mono&amp;#34; , monospace&quot;&gt;+&amp;nbsp;&lt;/span&gt;&lt;span style=&quot;background-color: rgb(255 , 255 , 255) ; font-family: &amp;#34;jetbrains mono&amp;#34; , monospace&quot;&gt;getEntityVariablePairs&lt;/span&gt;&lt;/p&gt;&lt;p style=&quot;margin: 0px ; margin-left: 4px&quot;&gt;&lt;span style=&quot;background-color: rgb(255 , 255 , 255) ; font-family: &amp;#34;jetbrains mono&amp;#34; , monospace&quot;&gt;+ calculateOnIntegrationPoints&lt;/span&gt;&lt;/p&gt;" style="verticalAlign=top;align=left;overflow=fill;fontSize=12;fontFamily=Helvetica;html=1;rounded=0;shadow=0;comic=0;labelBackgroundColor=none;strokeWidth=1" parent="1" vertex="1"><mxGeometry x="980" y="390" width="220" height="200" as="geometry"/></mxCell><mxCell id="g3qYvioin09v0p6BItIm-43" value="" style="endArrow=classic;html=1;entryX=0.323;entryY=0.995;entryDx=0;entryDy=0;entryPerimeter=0;" parent="1" target="g3qYvioin09v0p6BItIm-25" edge="1"><mxGeometry width="50" height="50" relative="1" as="geometry"><mxPoint x="1100" y="390" as="sourcePoint"/><mxPoint x="1150" y="340" as="targetPoint"/></mxGeometry></mxCell><mxCell id="g3qYvioin09v0p6BItIm-44" value="" style="endArrow=classic;html=1;exitX=0.309;exitY=0.007;exitDx=0;exitDy=0;exitPerimeter=0;entryX=0.75;entryY=1;entryDx=0;entryDy=0;" parent="1" source="g3qYvioin09v0p6BItIm-16" target="g3qYvioin09v0p6BItIm-25" edge="1"><mxGeometry width="50" height="50" relative="1" as="geometry"><mxPoint x="1190" y="380" as="sourcePoint"/><mxPoint x="1240" y="330" as="targetPoint"/></mxGeometry></mxCell><mxCell id="g3qYvioin09v0p6BItIm-45" value="&lt;p style=&quot;margin: 0px ; margin-top: 4px ; text-align: center&quot;&gt;&lt;/p&gt;&lt;p style=&quot;text-align: center ; margin: 0px 0px 0px 4px&quot;&gt;&lt;b&gt;Neumann&lt;/b&gt;&lt;/p&gt;" style="verticalAlign=top;align=left;overflow=fill;fontSize=12;fontFamily=Helvetica;html=1;rounded=0;shadow=0;comic=0;labelBackgroundColor=none;strokeWidth=1" parent="1" vertex="1"><mxGeometry x="1240" y="390" width="180" height="25" as="geometry"/></mxCell><mxCell id="g3qYvioin09v0p6BItIm-46" value="&lt;p style=&quot;margin: 0px ; margin-top: 4px ; text-align: center&quot;&gt;&lt;/p&gt;&lt;p style=&quot;text-align: center ; margin: 0px 0px 0px 4px&quot;&gt;&lt;b&gt;Selfcontact&lt;/b&gt;&lt;/p&gt;" style="verticalAlign=top;align=left;overflow=fill;fontSize=12;fontFamily=Helvetica;html=1;rounded=0;shadow=0;comic=0;labelBackgroundColor=none;strokeWidth=1" parent="1" vertex="1"><mxGeometry x="1240" y="425" width="180" height="31" as="geometry"/></mxCell><mxCell id="g3qYvioin09v0p6BItIm-48" value="" style="endArrow=classic;html=1;entryX=0.25;entryY=1;entryDx=0;entryDy=0;exitX=0.5;exitY=0;exitDx=0;exitDy=0;" parent="1" source="g3qYvioin09v0p6BItIm-27" target="5d2195bd80daf111-19" edge="1"><mxGeometry width="50" height="50" relative="1" as="geometry"><mxPoint x="1400" y="750" as="sourcePoint"/><mxPoint x="1450" y="700" as="targetPoint"/></mxGeometry></mxCell><mxCell id="g3qYvioin09v0p6BItIm-49" value="" style="endArrow=classic;html=1;exitX=0.5;exitY=0;exitDx=0;exitDy=0;" parent="1" source="g3qYvioin09v0p6BItIm-27" edge="1"><mxGeometry width="50" height="50" relative="1" as="geometry"><mxPoint x="1410" y="760" as="sourcePoint"/><mxPoint x="1080" y="590" as="targetPoint"/></mxGeometry></mxCell><mxCell id="g3qYvioin09v0p6BItIm-53" value="&lt;p style=&quot;margin: 0px ; margin-top: 4px ; text-align: center&quot;&gt;&lt;/p&gt;&lt;p style=&quot;text-align: center ; margin: 0px 0px 0px 4px&quot;&gt;&lt;b&gt;Displacement2D&lt;/b&gt;&lt;/p&gt;" style="verticalAlign=top;align=left;overflow=fill;fontSize=12;fontFamily=Helvetica;html=1;rounded=0;shadow=0;comic=0;labelBackgroundColor=none;strokeWidth=1" parent="1" vertex="1"><mxGeometry x="1510" y="735" width="180" height="25" as="geometry"/></mxCell><mxCell id="g3qYvioin09v0p6BItIm-54" value="&lt;p style=&quot;margin: 0px ; margin-top: 4px ; text-align: center&quot;&gt;&lt;/p&gt;&lt;p style=&quot;text-align: center ; margin: 0px 0px 0px 4px&quot;&gt;&lt;b&gt;Displacement3D&lt;/b&gt;&lt;/p&gt;" style="verticalAlign=top;align=left;overflow=fill;fontSize=12;fontFamily=Helvetica;html=1;rounded=0;shadow=0;comic=0;labelBackgroundColor=none;strokeWidth=1" parent="1" vertex="1"><mxGeometry x="1510" y="770" width="180" height="25" as="geometry"/></mxCell><mxCell id="g3qYvioin09v0p6BItIm-55" value="&lt;p style=&quot;margin: 0px ; margin-top: 4px ; text-align: center&quot;&gt;&lt;/p&gt;&lt;p style=&quot;text-align: center ; margin: 0px 0px 0px 4px&quot;&gt;&lt;b&gt;Director3D&lt;/b&gt;&lt;/p&gt;" style="verticalAlign=top;align=left;overflow=fill;fontSize=12;fontFamily=Helvetica;html=1;rounded=0;shadow=0;comic=0;labelBackgroundColor=none;strokeWidth=1" parent="1" vertex="1"><mxGeometry x="1510" y="812.5" width="180" height="25" as="geometry"/></mxCell><mxCell id="g3qYvioin09v0p6BItIm-56" value="&lt;p style=&quot;margin: 0px ; margin-top: 4px ; text-align: center&quot;&gt;&lt;/p&gt;&lt;p style=&quot;text-align: center ; margin: 0px 0px 0px 4px&quot;&gt;&lt;b&gt;Pressure&lt;/b&gt;&lt;/p&gt;" style="verticalAlign=top;align=left;overflow=fill;fontSize=12;fontFamily=Helvetica;html=1;rounded=0;shadow=0;comic=0;labelBackgroundColor=none;strokeWidth=1" parent="1" vertex="1"><mxGeometry x="1510" y="850" width="180" height="25" as="geometry"/></mxCell><mxCell id="g3qYvioin09v0p6BItIm-57" value="&lt;p style=&quot;margin: 0px ; margin-top: 4px ; text-align: center&quot;&gt;&lt;/p&gt;&lt;p style=&quot;text-align: center ; margin: 0px 0px 0px 4px&quot;&gt;&lt;b&gt;LagrangeMultiplier&lt;/b&gt;&lt;/p&gt;" style="verticalAlign=top;align=left;overflow=fill;fontSize=12;fontFamily=Helvetica;html=1;rounded=0;shadow=0;comic=0;labelBackgroundColor=none;strokeWidth=1" parent="1" vertex="1"><mxGeometry x="1510" y="890" width="180" height="25" as="geometry"/></mxCell><mxCell id="2" value="" style="rounded=0;whiteSpace=wrap;html=1;fillColor=none;" vertex="1" parent="1"><mxGeometry x="120" y="120" width="350" height="187" as="geometry"/></mxCell><mxCell id="3" value="&lt;span style=&quot;color: rgb(232 , 62 , 140) ; font-family: , &amp;#34;menlo&amp;#34; , &amp;#34;monaco&amp;#34; , &amp;#34;consolas&amp;#34; , &amp;#34;liberation mono&amp;#34; , &amp;#34;courier new&amp;#34; , monospace ; font-size: 14px ; text-align: left ; background-color: rgb(255 , 255 , 255)&quot;&gt;\(\sqrt{3×-1}+(1+x)^2\)&lt;/span&gt;" style="text;html=1;strokeColor=none;fillColor=none;align=center;verticalAlign=middle;whiteSpace=wrap;rounded=0;" vertex="1" parent="1"><mxGeometry x="530" y="230" width="60" height="30" as="geometry"/></mxCell><mxCell id="4" value="List Item" style="text;strokeColor=none;fillColor=none;align=left;verticalAlign=middle;spacingLeft=4;spacingRight=4;overflow=hidden;points=[[0,0.5],[1,0.5]];portConstraint=eastwest;rotatable=0;" vertex="1" parent="1"><mxGeometry x="450" y="340" width="80" height="30" as="geometry"/></mxCell></root></mxGraphModel></diagram></mxfile>